<?xml version="1.0" standalone="no"?>
<!DOCTYPE svg PUBLIC "-//W3C//DTD SVG 20010904//EN"
 "http://www.w3.org/TR/2001/REC-SVG-20010904/DTD/svg10.dtd">
<svg version="1.0" xmlns="http://www.w3.org/2000/svg"
 width="168.000000pt" height="88.000000pt" viewBox="0 0 168.000000 88.000000"
 preserveAspectRatio="xMidYMid meet">

<g transform="translate(0.000000,88.000000) scale(0.100000,-0.100000)"
fill="#000000" stroke="none">
<path d="M580 705 l0 -175 80 0 c89 0 123 11 139 47 19 42 13 82 -17 113 l-28
28 23 26 c25 30 29 53 12 89 -16 35 -50 47 -134 47 l-75 0 0 -175z m134 129
c3 -9 6 -28 6 -44 0 -44 -10 -60 -36 -60 -23 0 -24 3 -24 60 0 57 1 60 24 60
13 0 27 -7 30 -16z m0 -150 c18 -18 21 -76 6 -105 -6 -11 -21 -19 -35 -19 -24
0 -25 2 -25 70 0 62 2 70 19 70 11 0 27 -7 35 -16z"/>
<path d="M1020 700 l0 -170 30 0 29 0 3 170 3 170 -32 0 -33 0 0 -170z"/>
<path d="M1120 700 l0 -170 30 0 30 0 0 170 0 170 -30 0 -30 0 0 -170z"/>
<path d="M866 719 c-67 -53 -41 -189 36 -189 38 0 65 15 79 43 10 19 8 19 -18
-5 -16 -16 -39 -28 -51 -28 -19 0 -22 5 -22 45 l0 45 50 0 c56 0 61 9 35 60
-27 52 -66 63 -109 29z m62 -37 c3 -37 1 -42 -17 -42 -18 0 -21 6 -21 38 0 68
33 71 38 4z"/>
<path d="M1249 711 c-58 -58 -29 -181 42 -181 38 0 65 14 80 43 10 19 8 19
-18 -5 -16 -16 -39 -28 -51 -28 -19 0 -22 5 -22 45 l0 45 50 0 c56 0 61 9 35
60 -29 56 -72 64 -116 21z m69 -29 c3 -37 1 -42 -17 -42 -18 0 -21 6 -21 38 0
68 33 71 38 4z"/>
<path d="M145 647 c-73 -41 -105 -140 -71 -220 18 -44 78 -95 121 -103 117
-22 212 65 203 187 -9 129 -140 200 -253 136z m173 -14 c73 -54 95 -155 49
-224 -24 -37 -97 -79 -137 -79 -45 0 -113 42 -138 85 -45 79 -10 194 72 231
41 19 120 12 154 -13z"/>
<path d="M580 340 l0 -170 93 0 c117 0 137 13 137 90 0 43 -4 52 -29 71 l-30
22 25 19 c31 25 34 88 4 118 -17 17 -33 20 -110 20 l-90 0 0 -170z m130 135
c17 -20 15 -84 -3 -103 -30 -29 -47 -8 -47 58 0 52 2 60 19 60 10 0 24 -7 31
-15z m2 -152 c12 -11 18 -30 18 -57 0 -50 -9 -65 -40 -68 -24 -3 -25 0 -28 56
-5 87 9 106 50 69z"/>
<path d="M0 477 c0 -38 36 -111 72 -147 30 -30 57 -45 100 -57 54 -15 59 -19
56 -42 -3 -22 -9 -26 -40 -29 -74 -6 -36 -22 52 -22 88 0 126 16 53 22 -34 3
-38 6 -38 32 0 25 5 30 43 41 23 7 58 25 76 39 37 28 86 116 86 154 0 36 -17
17 -24 -28 -8 -50 -64 -116 -121 -141 -78 -36 -178 -16 -237 47 -30 32 -58 92
-58 124 0 11 -4 20 -10 20 -5 0 -10 -6 -10 -13z"/>
<path d="M1389 368 c-3 -73 4 -164 12 -180 6 -12 22 -18 44 -18 33 0 54 15 40
28 -4 4 -10 1 -12 -5 -12 -34 -23 -6 -23 57 0 60 3 70 18 70 16 1 16 1 0 14
-10 7 -18 25 -18 40 0 22 -4 26 -30 26 -27 0 -30 -3 -31 -32z"/>
<path d="M859 324 c-36 -38 -34 -107 4 -140 15 -13 36 -24 46 -24 21 0 71 37
71 52 0 6 -11 -1 -25 -16 -35 -37 -59 -31 -63 17 l-3 37 45 0 c42 0 46 2 46
24 0 13 -9 35 -21 50 -27 34 -68 34 -100 0z m71 -24 c0 -33 -3 -40 -20 -40
-17 0 -20 7 -20 40 0 33 3 40 20 40 17 0 20 -7 20 -40z"/>
<path d="M1027 322 c-26 -28 -31 -75 -13 -110 20 -39 49 -49 81 -28 14 9 25
12 25 6 0 -5 11 -10 25 -10 25 0 25 1 25 80 0 79 0 80 -25 80 -14 0 -25 -5
-25 -10 0 -7 -6 -7 -19 0 -29 15 -56 12 -74 -8z m83 -21 c15 -29 12 -72 -7
-93 -32 -35 -43 -23 -43 47 0 58 2 65 20 65 10 0 24 -9 30 -19z"/>
<path d="M1200 275 c0 -77 20 -105 73 -105 57 0 71 19 75 99 3 48 1 71 -7 71
-7 0 -11 -24 -11 -64 0 -67 -15 -94 -45 -82 -11 4 -15 22 -15 76 l0 70 -35 0
-35 0 0 -65z"/>
<path d="M1546 263 c65 -102 56 -100 92 -28 17 36 30 65 27 65 -2 0 -13 -16
-23 -36 l-19 -36 -29 46 c-23 37 -35 46 -57 46 l-28 0 37 -57z"/>
<path d="M1515 19 c-4 -6 -5 -12 -2 -15 2 -3 7 2 10 11 7 17 1 20 -8 4z"/>
</g>
</svg>
